<?xml version="1.0" encoding="utf-8" standalone="no"?>
<!DOCTYPE svg PUBLIC "-//W3C//DTD SVG 1.1//EN"
  "http://www.w3.org/Graphics/SVG/1.1/DTD/svg11.dtd">
<svg xmlns:xlink="http://www.w3.org/1999/xlink" width="432pt" height="432pt" viewBox="0 0 432 432" xmlns="http://www.w3.org/2000/svg" version="1.1">
 <metadata>
  <rdf:RDF xmlns:dc="http://purl.org/dc/elements/1.1/" xmlns:cc="http://creativecommons.org/ns#" xmlns:rdf="http://www.w3.org/1999/02/22-rdf-syntax-ns#">
   <cc:Work>
    <dc:type rdf:resource="http://purl.org/dc/dcmitype/StillImage"/>
    <dc:date>2025-12-10T11:37:15.610382</dc:date>
    <dc:format>image/svg+xml</dc:format>
    <dc:creator>
     <cc:Agent>
      <dc:title>Matplotlib v3.10.7, https://matplotlib.org/</dc:title>
     </cc:Agent>
    </dc:creator>
   </cc:Work>
  </rdf:RDF>
 </metadata>
 <defs>
  <style type="text/css">*{stroke-linejoin: round; stroke-linecap: butt}</style>
 </defs>
 <g id="figure_1">
  <g id="patch_1">
   <path d="M 0 432 
L 432 432 
L 432 0 
L 0 0 
L 0 432 
z
" style="fill: none"/>
  </g>
  <g id="axes_1">
   <g id="patch_2">
    <path d="M 360.93 224.4 
C 360.93 207.93607 357.686965 191.632231 351.386492 176.421543 
C 345.086018 161.210855 335.850635 147.389128 324.208879 135.747371 
C 312.567122 124.105615 298.745395 114.870232 283.534707 108.569758 
C 268.324019 102.269285 252.02018 99.02625 235.55625 99.02625 
C 219.09232 99.02625 202.788481 102.269285 187.577793 108.569758 
C 172.367105 114.870232 158.545378 124.105615 146.903621 135.747371 
C 135.261865 147.389128 126.026482 161.210855 119.726008 176.421543 
C 113.425535 191.632231 110.1825 207.93607 110.1825 224.4 
C 110.1825 240.86393 113.425535 257.167769 119.726008 272.378457 
C 126.026482 287.589145 135.261865 301.410872 146.903621 313.052629 
C 158.545378 324.694385 172.367105 333.929768 187.577793 340.230242 
C 202.788481 346.530715 219.09232 349.77375 235.55625 349.77375 
C 252.02018 349.77375 268.324019 346.530715 283.534707 340.230242 
C 298.745395 333.929768 312.567122 324.694385 324.208879 313.052629 
C 335.850635 301.410872 345.086018 287.589145 351.386492 272.378457 
C 357.686965 257.167769 360.93 240.86393 360.93 224.4 
M 235.55625 224.4 
C 235.55625 224.4 235.55625 224.4 235.55625 224.4 
C 235.55625 224.4 235.55625 224.4 235.55625 224.4 
C 235.55625 224.4 235.55625 224.4 235.55625 224.4 
C 235.55625 224.4 235.55625 224.4 235.55625 224.4 
C 235.55625 224.4 235.55625 224.4 235.55625 224.4 
C 235.55625 224.4 235.55625 224.4 235.55625 224.4 
C 235.55625 224.4 235.55625 224.4 235.55625 224.4 
C 235.55625 224.4 235.55625 224.4 235.55625 224.4 
C 235.55625 224.4 235.55625 224.4 235.55625 224.4 
C 235.55625 224.4 235.55625 224.4 235.55625 224.4 
C 235.55625 224.4 235.55625 224.4 235.55625 224.4 
C 235.55625 224.4 235.55625 224.4 235.55625 224.4 
C 235.55625 224.4 235.55625 224.4 235.55625 224.4 
C 235.55625 224.4 235.55625 224.4 235.55625 224.4 
C 235.55625 224.4 235.55625 224.4 235.55625 224.4 
C 235.55625 224.4 235.55625 224.4 235.55625 224.4 
L 235.55625 224.4 
z
" style="fill: none"/>
   </g>
   <g id="matplotlib.axis_1">
    <g id="xtick_1">
     <g id="line2d_1">
      <path d="M 235.55625 224.4 
L 235.55625 99.02625 
" clip-path="url(#p5a4a666811)" style="fill: none; stroke: #cccccc; stroke-width: 1.5; stroke-linecap: round"/>
     </g>
     <g id="text_1">
      <!-- Assertiveness -->
      <g style="fill: #262626" transform="translate(178.463672 84.079219) scale(0.165 -0.165)">
       <defs>
        <path id="DejaVuSans-41" d="M 2188 4044 
L 1331 1722 
L 3047 1722 
L 2188 4044 
z
M 1831 4666 
L 2547 4666 
L 4325 0 
L 3669 0 
L 3244 1197 
L 1141 1197 
L 716 0 
L 50 0 
L 1831 4666 
z
" transform="scale(0.015625)"/>
        <path id="DejaVuSans-73" d="M 2834 3397 
L 2834 2853 
Q 2591 2978 2328 3040 
Q 2066 3103 1784 3103 
Q 1356 3103 1142 2972 
Q 928 2841 928 2578 
Q 928 2378 1081 2264 
Q 1234 2150 1697 2047 
L 1894 2003 
Q 2506 1872 2764 1633 
Q 3022 1394 3022 966 
Q 3022 478 2636 193 
Q 2250 -91 1575 -91 
Q 1294 -91 989 -36 
Q 684 19 347 128 
L 347 722 
Q 666 556 975 473 
Q 1284 391 1588 391 
Q 1994 391 2212 530 
Q 2431 669 2431 922 
Q 2431 1156 2273 1281 
Q 2116 1406 1581 1522 
L 1381 1569 
Q 847 1681 609 1914 
Q 372 2147 372 2553 
Q 372 3047 722 3315 
Q 1072 3584 1716 3584 
Q 2034 3584 2315 3537 
Q 2597 3491 2834 3397 
z
" transform="scale(0.015625)"/>
        <path id="DejaVuSans-65" d="M 3597 1894 
L 3597 1613 
L 953 1613 
Q 991 1019 1311 708 
Q 1631 397 2203 397 
Q 2534 397 2845 478 
Q 3156 559 3463 722 
L 3463 178 
Q 3153 47 2828 -22 
Q 2503 -91 2169 -91 
Q 1331 -91 842 396 
Q 353 884 353 1716 
Q 353 2575 817 3079 
Q 1281 3584 2069 3584 
Q 2775 3584 3186 3129 
Q 3597 2675 3597 1894 
z
M 3022 2063 
Q 3016 2534 2758 2815 
Q 2500 3097 2075 3097 
Q 1594 3097 1305 2825 
Q 1016 2553 972 2059 
L 3022 2063 
z
" transform="scale(0.015625)"/>
        <path id="DejaVuSans-72" d="M 2631 2963 
Q 2534 3019 2420 3045 
Q 2306 3072 2169 3072 
Q 1681 3072 1420 2755 
Q 1159 2438 1159 1844 
L 1159 0 
L 581 0 
L 581 3500 
L 1159 3500 
L 1159 2956 
Q 1341 3275 1631 3429 
Q 1922 3584 2338 3584 
Q 2397 3584 2469 3576 
Q 2541 3569 2628 3553 
L 2631 2963 
z
" transform="scale(0.015625)"/>
        <path id="DejaVuSans-74" d="M 1172 4494 
L 1172 3500 
L 2356 3500 
L 2356 3053 
L 1172 3053 
L 1172 1153 
Q 1172 725 1289 603 
Q 1406 481 1766 481 
L 2356 481 
L 2356 0 
L 1766 0 
Q 1100 0 847 248 
Q 594 497 594 1153 
L 594 3053 
L 172 3053 
L 172 3500 
L 594 3500 
L 594 4494 
L 1172 4494 
z
" transform="scale(0.015625)"/>
        <path id="DejaVuSans-69" d="M 603 3500 
L 1178 3500 
L 1178 0 
L 603 0 
L 603 3500 
z
M 603 4863 
L 1178 4863 
L 1178 4134 
L 603 4134 
L 603 4863 
z
" transform="scale(0.015625)"/>
        <path id="DejaVuSans-76" d="M 191 3500 
L 800 3500 
L 1894 563 
L 2988 3500 
L 3597 3500 
L 2284 0 
L 1503 0 
L 191 3500 
z
" transform="scale(0.015625)"/>
        <path id="DejaVuSans-6e" d="M 3513 2113 
L 3513 0 
L 2938 0 
L 2938 2094 
Q 2938 2591 2744 2837 
Q 2550 3084 2163 3084 
Q 1697 3084 1428 2787 
Q 1159 2491 1159 1978 
L 1159 0 
L 581 0 
L 581 3500 
L 1159 3500 
L 1159 2956 
Q 1366 3272 1645 3428 
Q 1925 3584 2291 3584 
Q 2894 3584 3203 3211 
Q 3513 2838 3513 2113 
z
" transform="scale(0.015625)"/>
       </defs>
       <use xlink:href="#DejaVuSans-41"/>
       <use xlink:href="#DejaVuSans-73" transform="translate(68.408203 0)"/>
       <use xlink:href="#DejaVuSans-73" transform="translate(120.507812 0)"/>
       <use xlink:href="#DejaVuSans-65" transform="translate(172.607422 0)"/>
       <use xlink:href="#DejaVuSans-72" transform="translate(234.130859 0)"/>
       <use xlink:href="#DejaVuSans-74" transform="translate(275.244141 0)"/>
       <use xlink:href="#DejaVuSans-69" transform="translate(314.453125 0)"/>
       <use xlink:href="#DejaVuSans-76" transform="translate(342.236328 0)"/>
       <use xlink:href="#DejaVuSans-65" transform="translate(401.416016 0)"/>
       <use xlink:href="#DejaVuSans-6e" transform="translate(462.939453 0)"/>
       <use xlink:href="#DejaVuSans-65" transform="translate(526.318359 0)"/>
       <use xlink:href="#DejaVuSans-73" transform="translate(587.841797 0)"/>
       <use xlink:href="#DejaVuSans-73" transform="translate(639.941406 0)"/>
      </g>
     </g>
    </g>
    <g id="xtick_2">
     <g id="line2d_2">
      <path d="M 235.55625 224.4 
L 360.93 224.4 
" clip-path="url(#p5a4a666811)" style="fill: none; stroke: #cccccc; stroke-width: 1.5; stroke-linecap: round"/>
     </g>
     <g id="text_2">
      <!-- Complexity -->
      <g style="fill: #262626" transform="translate(333.83168 228.952969) scale(0.165 -0.165)">
       <defs>
        <path id="DejaVuSans-43" d="M 4122 4306 
L 4122 3641 
Q 3803 3938 3442 4084 
Q 3081 4231 2675 4231 
Q 1875 4231 1450 3742 
Q 1025 3253 1025 2328 
Q 1025 1406 1450 917 
Q 1875 428 2675 428 
Q 3081 428 3442 575 
Q 3803 722 4122 1019 
L 4122 359 
Q 3791 134 3420 21 
Q 3050 -91 2638 -91 
Q 1578 -91 968 557 
Q 359 1206 359 2328 
Q 359 3453 968 4101 
Q 1578 4750 2638 4750 
Q 3056 4750 3426 4639 
Q 3797 4528 4122 4306 
z
" transform="scale(0.015625)"/>
        <path id="DejaVuSans-6f" d="M 1959 3097 
Q 1497 3097 1228 2736 
Q 959 2375 959 1747 
Q 959 1119 1226 758 
Q 1494 397 1959 397 
Q 2419 397 2687 759 
Q 2956 1122 2956 1747 
Q 2956 2369 2687 2733 
Q 2419 3097 1959 3097 
z
M 1959 3584 
Q 2709 3584 3137 3096 
Q 3566 2609 3566 1747 
Q 3566 888 3137 398 
Q 2709 -91 1959 -91 
Q 1206 -91 779 398 
Q 353 888 353 1747 
Q 353 2609 779 3096 
Q 1206 3584 1959 3584 
z
" transform="scale(0.015625)"/>
        <path id="DejaVuSans-6d" d="M 3328 2828 
Q 3544 3216 3844 3400 
Q 4144 3584 4550 3584 
Q 5097 3584 5394 3201 
Q 5691 2819 5691 2113 
L 5691 0 
L 5113 0 
L 5113 2094 
Q 5113 2597 4934 2840 
Q 4756 3084 4391 3084 
Q 3944 3084 3684 2787 
Q 3425 2491 3425 1978 
L 3425 0 
L 2847 0 
L 2847 2094 
Q 2847 2600 2669 2842 
Q 2491 3084 2119 3084 
Q 1678 3084 1418 2786 
Q 1159 2488 1159 1978 
L 1159 0 
L 581 0 
L 581 3500 
L 1159 3500 
L 1159 2956 
Q 1356 3278 1631 3431 
Q 1906 3584 2284 3584 
Q 2666 3584 2933 3390 
Q 3200 3197 3328 2828 
z
" transform="scale(0.015625)"/>
        <path id="DejaVuSans-70" d="M 1159 525 
L 1159 -1331 
L 581 -1331 
L 581 3500 
L 1159 3500 
L 1159 2969 
Q 1341 3281 1617 3432 
Q 1894 3584 2278 3584 
Q 2916 3584 3314 3078 
Q 3713 2572 3713 1747 
Q 3713 922 3314 415 
Q 2916 -91 2278 -91 
Q 1894 -91 1617 61 
Q 1341 213 1159 525 
z
M 3116 1747 
Q 3116 2381 2855 2742 
Q 2594 3103 2138 3103 
Q 1681 3103 1420 2742 
Q 1159 2381 1159 1747 
Q 1159 1113 1420 752 
Q 1681 391 2138 391 
Q 2594 391 2855 752 
Q 3116 1113 3116 1747 
z
" transform="scale(0.015625)"/>
        <path id="DejaVuSans-6c" d="M 603 4863 
L 1178 4863 
L 1178 0 
L 603 0 
L 603 4863 
z
" transform="scale(0.015625)"/>
        <path id="DejaVuSans-78" d="M 3513 3500 
L 2247 1797 
L 3578 0 
L 2900 0 
L 1881 1375 
L 863 0 
L 184 0 
L 1544 1831 
L 300 3500 
L 978 3500 
L 1906 2253 
L 2834 3500 
L 3513 3500 
z
" transform="scale(0.015625)"/>
        <path id="DejaVuSans-79" d="M 2059 -325 
Q 1816 -950 1584 -1140 
Q 1353 -1331 966 -1331 
L 506 -1331 
L 506 -850 
L 844 -850 
Q 1081 -850 1212 -737 
Q 1344 -625 1503 -206 
L 1606 56 
L 191 3500 
L 800 3500 
L 1894 763 
L 2988 3500 
L 3597 3500 
L 2059 -325 
z
" transform="scale(0.015625)"/>
       </defs>
       <use xlink:href="#DejaVuSans-43"/>
       <use xlink:href="#DejaVuSans-6f" transform="translate(69.824219 0)"/>
       <use xlink:href="#DejaVuSans-6d" transform="translate(131.005859 0)"/>
       <use xlink:href="#DejaVuSans-70" transform="translate(228.417969 0)"/>
       <use xlink:href="#DejaVuSans-6c" transform="translate(291.894531 0)"/>
       <use xlink:href="#DejaVuSans-65" transform="translate(319.677734 0)"/>
       <use xlink:href="#DejaVuSans-78" transform="translate(379.451172 0)"/>
       <use xlink:href="#DejaVuSans-69" transform="translate(438.630859 0)"/>
       <use xlink:href="#DejaVuSans-74" transform="translate(466.414062 0)"/>
       <use xlink:href="#DejaVuSans-79" transform="translate(505.623047 0)"/>
      </g>
     </g>
    </g>
    <g id="xtick_3">
     <g id="line2d_3">
      <path d="M 235.55625 224.4 
L 235.55625 349.77375 
" clip-path="url(#p5a4a666811)" style="fill: none; stroke: #cccccc; stroke-width: 1.5; stroke-linecap: round"/>
     </g>
     <g id="text_3">
      <!-- Emotional Distance -->
      <g style="fill: #262626" transform="translate(155.413945 373.826719) scale(0.165 -0.165)">
       <defs>
        <path id="DejaVuSans-45" d="M 628 4666 
L 3578 4666 
L 3578 4134 
L 1259 4134 
L 1259 2753 
L 3481 2753 
L 3481 2222 
L 1259 2222 
L 1259 531 
L 3634 531 
L 3634 0 
L 628 0 
L 628 4666 
z
" transform="scale(0.015625)"/>
        <path id="DejaVuSans-61" d="M 2194 1759 
Q 1497 1759 1228 1600 
Q 959 1441 959 1056 
Q 959 750 1161 570 
Q 1363 391 1709 391 
Q 2188 391 2477 730 
Q 2766 1069 2766 1631 
L 2766 1759 
L 2194 1759 
z
M 3341 1997 
L 3341 0 
L 2766 0 
L 2766 531 
Q 2569 213 2275 61 
Q 1981 -91 1556 -91 
Q 1019 -91 701 211 
Q 384 513 384 1019 
Q 384 1609 779 1909 
Q 1175 2209 1959 2209 
L 2766 2209 
L 2766 2266 
Q 2766 2663 2505 2880 
Q 2244 3097 1772 3097 
Q 1472 3097 1187 3025 
Q 903 2953 641 2809 
L 641 3341 
Q 956 3463 1253 3523 
Q 1550 3584 1831 3584 
Q 2591 3584 2966 3190 
Q 3341 2797 3341 1997 
z
" transform="scale(0.015625)"/>
        <path id="DejaVuSans-20" transform="scale(0.015625)"/>
        <path id="DejaVuSans-44" d="M 1259 4147 
L 1259 519 
L 2022 519 
Q 2988 519 3436 956 
Q 3884 1394 3884 2338 
Q 3884 3275 3436 3711 
Q 2988 4147 2022 4147 
L 1259 4147 
z
M 628 4666 
L 1925 4666 
Q 3281 4666 3915 4102 
Q 4550 3538 4550 2338 
Q 4550 1131 3912 565 
Q 3275 0 1925 0 
L 628 0 
L 628 4666 
z
" transform="scale(0.015625)"/>
        <path id="DejaVuSans-63" d="M 3122 3366 
L 3122 2828 
Q 2878 2963 2633 3030 
Q 2388 3097 2138 3097 
Q 1578 3097 1268 2742 
Q 959 2388 959 1747 
Q 959 1106 1268 751 
Q 1578 397 2138 397 
Q 2388 397 2633 464 
Q 2878 531 3122 666 
L 3122 134 
Q 2881 22 2623 -34 
Q 2366 -91 2075 -91 
Q 1284 -91 818 406 
Q 353 903 353 1747 
Q 353 2603 823 3093 
Q 1294 3584 2113 3584 
Q 2378 3584 2631 3529 
Q 2884 3475 3122 3366 
z
" transform="scale(0.015625)"/>
       </defs>
       <use xlink:href="#DejaVuSans-45"/>
       <use xlink:href="#DejaVuSans-6d" transform="translate(63.183594 0)"/>
       <use xlink:href="#DejaVuSans-6f" transform="translate(160.595703 0)"/>
       <use xlink:href="#DejaVuSans-74" transform="translate(221.777344 0)"/>
       <use xlink:href="#DejaVuSans-69" transform="translate(260.986328 0)"/>
       <use xlink:href="#DejaVuSans-6f" transform="translate(288.769531 0)"/>
       <use xlink:href="#DejaVuSans-6e" transform="translate(349.951172 0)"/>
       <use xlink:href="#DejaVuSans-61" transform="translate(413.330078 0)"/>
       <use xlink:href="#DejaVuSans-6c" transform="translate(474.609375 0)"/>
       <use xlink:href="#DejaVuSans-20" transform="translate(502.392578 0)"/>
       <use xlink:href="#DejaVuSans-44" transform="translate(534.179688 0)"/>
       <use xlink:href="#DejaVuSans-69" transform="translate(611.181641 0)"/>
       <use xlink:href="#DejaVuSans-73" transform="translate(638.964844 0)"/>
       <use xlink:href="#DejaVuSans-74" transform="translate(691.064453 0)"/>
       <use xlink:href="#DejaVuSans-61" transform="translate(730.273438 0)"/>
       <use xlink:href="#DejaVuSans-6e" transform="translate(791.552734 0)"/>
       <use xlink:href="#DejaVuSans-63" transform="translate(854.931641 0)"/>
       <use xlink:href="#DejaVuSans-65" transform="translate(909.912109 0)"/>
      </g>
     </g>
    </g>
    <g id="xtick_4">
     <g id="line2d_4">
      <path d="M 235.55625 224.4 
L 110.1825 224.4 
" clip-path="url(#p5a4a666811)" style="fill: none; stroke: #cccccc; stroke-width: 1.5; stroke-linecap: round"/>
     </g>
     <g id="text_4">
      <!-- Instructional Density -->
      <g style="fill: #262626" transform="translate(5.195742 228.952969) scale(0.165 -0.165)">
       <defs>
        <path id="DejaVuSans-49" d="M 628 4666 
L 1259 4666 
L 1259 0 
L 628 0 
L 628 4666 
z
" transform="scale(0.015625)"/>
        <path id="DejaVuSans-75" d="M 544 1381 
L 544 3500 
L 1119 3500 
L 1119 1403 
Q 1119 906 1312 657 
Q 1506 409 1894 409 
Q 2359 409 2629 706 
Q 2900 1003 2900 1516 
L 2900 3500 
L 3475 3500 
L 3475 0 
L 2900 0 
L 2900 538 
Q 2691 219 2414 64 
Q 2138 -91 1772 -91 
Q 1169 -91 856 284 
Q 544 659 544 1381 
z
M 1991 3584 
L 1991 3584 
z
" transform="scale(0.015625)"/>
       </defs>
       <use xlink:href="#DejaVuSans-49"/>
       <use xlink:href="#DejaVuSans-6e" transform="translate(29.492188 0)"/>
       <use xlink:href="#DejaVuSans-73" transform="translate(92.871094 0)"/>
       <use xlink:href="#DejaVuSans-74" transform="translate(144.970703 0)"/>
       <use xlink:href="#DejaVuSans-72" transform="translate(184.179688 0)"/>
       <use xlink:href="#DejaVuSans-75" transform="translate(225.292969 0)"/>
       <use xlink:href="#DejaVuSans-63" transform="translate(288.671875 0)"/>
       <use xlink:href="#DejaVuSans-74" transform="translate(343.652344 0)"/>
       <use xlink:href="#DejaVuSans-69" transform="translate(382.861328 0)"/>
       <use xlink:href="#DejaVuSans-6f" transform="translate(410.644531 0)"/>
       <use xlink:href="#DejaVuSans-6e" transform="translate(471.826172 0)"/>
       <use xlink:href="#DejaVuSans-61" transform="translate(535.205078 0)"/>
       <use xlink:href="#DejaVuSans-6c" transform="translate(596.484375 0)"/>
       <use xlink:href="#DejaVuSans-20" transform="translate(624.267578 0)"/>
       <use xlink:href="#DejaVuSans-44" transform="translate(656.054688 0)"/>
       <use xlink:href="#DejaVuSans-65" transform="translate(733.056641 0)"/>
       <use xlink:href="#DejaVuSans-6e" transform="translate(794.580078 0)"/>
       <use xlink:href="#DejaVuSans-73" transform="translate(857.958984 0)"/>
       <use xlink:href="#DejaVuSans-69" transform="translate(910.058594 0)"/>
       <use xlink:href="#DejaVuSans-74" transform="translate(937.841797 0)"/>
       <use xlink:href="#DejaVuSans-79" transform="translate(977.050781 0)"/>
      </g>
     </g>
    </g>
   </g>
   <g id="matplotlib.axis_2">
    <g id="ytick_1">
     <g id="line2d_5">
      <path d="M 235.55625 207.30358 
C 237.801331 207.30358 240.024582 207.745812 242.098767 208.604967 
C 244.172952 209.464123 246.057733 210.723493 247.645245 212.311005 
C 249.232757 213.898517 250.492127 215.783298 251.351283 217.857483 
C 252.210438 219.931668 252.65267 222.154919 252.65267 224.4 
C 252.65267 226.645081 252.210438 228.868332 251.351283 230.942517 
C 250.492127 233.016702 249.232757 234.901483 247.645245 236.488995 
C 246.057733 238.076507 244.172952 239.335877 242.098767 240.195033 
C 240.024582 241.054188 237.801331 241.49642 235.55625 241.49642 
C 233.311169 241.49642 231.087918 241.054188 229.013733 240.195033 
C 226.939548 239.335877 225.054767 238.076507 223.467255 236.488995 
C 221.879743 234.901483 220.620373 233.016702 219.761217 230.942517 
C 218.902062 228.868332 218.45983 226.645081 218.45983 224.4 
C 218.45983 222.154919 218.902062 219.931668 219.761217 217.857483 
C 220.620373 215.783298 221.879743 213.898517 223.467255 212.311005 
C 225.054767 210.723493 226.939548 209.464123 229.013733 208.604967 
C 231.087918 207.745812 233.311169 207.30358 235.55625 207.30358 
" clip-path="url(#p5a4a666811)" style="fill: none; stroke: #cccccc; stroke-width: 1.5; stroke-linecap: round"/>
     </g>
     <g id="text_5">
      <!-- −0.04 -->
      <g style="fill: #262626" transform="translate(235.55625 203.872095) scale(0.165 -0.165)">
       <defs>
        <path id="DejaVuSans-2212" d="M 678 2272 
L 4684 2272 
L 4684 1741 
L 678 1741 
L 678 2272 
z
" transform="scale(0.015625)"/>
        <path id="DejaVuSans-30" d="M 2034 4250 
Q 1547 4250 1301 3770 
Q 1056 3291 1056 2328 
Q 1056 1369 1301 889 
Q 1547 409 2034 409 
Q 2525 409 2770 889 
Q 3016 1369 3016 2328 
Q 3016 3291 2770 3770 
Q 2525 4250 2034 4250 
z
M 2034 4750 
Q 2819 4750 3233 4129 
Q 3647 3509 3647 2328 
Q 3647 1150 3233 529 
Q 2819 -91 2034 -91 
Q 1250 -91 836 529 
Q 422 1150 422 2328 
Q 422 3509 836 4129 
Q 1250 4750 2034 4750 
z
" transform="scale(0.015625)"/>
        <path id="DejaVuSans-2e" d="M 684 794 
L 1344 794 
L 1344 0 
L 684 0 
L 684 794 
z
" transform="scale(0.015625)"/>
        <path id="DejaVuSans-34" d="M 2419 4116 
L 825 1625 
L 2419 1625 
L 2419 4116 
z
M 2253 4666 
L 3047 4666 
L 3047 1625 
L 3713 1625 
L 3713 1100 
L 3047 1100 
L 3047 0 
L 2419 0 
L 2419 1100 
L 313 1100 
L 313 1709 
L 2253 4666 
z
" transform="scale(0.015625)"/>
       </defs>
       <use xlink:href="#DejaVuSans-2212"/>
       <use xlink:href="#DejaVuSans-30" transform="translate(83.789062 0)"/>
       <use xlink:href="#DejaVuSans-2e" transform="translate(147.412109 0)"/>
       <use xlink:href="#DejaVuSans-30" transform="translate(179.199219 0)"/>
       <use xlink:href="#DejaVuSans-34" transform="translate(242.822266 0)"/>
      </g>
     </g>
    </g>
    <g id="ytick_2">
     <g id="line2d_6">
      <path d="M 235.55625 184.508352 
C 240.794773 184.508352 245.982358 185.540227 250.822123 187.544923 
C 255.661887 189.549619 260.059709 192.48815 263.763905 196.192345 
C 267.4681 199.896541 270.406631 204.294363 272.411327 209.134127 
C 274.416023 213.973892 275.447898 219.161477 275.447898 224.4 
C 275.447898 229.638523 274.416023 234.826108 272.411327 239.665873 
C 270.406631 244.505637 267.4681 248.903459 263.763905 252.607655 
C 260.059709 256.31185 255.661887 259.250381 250.822123 261.255077 
C 245.982358 263.259773 240.794773 264.291648 235.55625 264.291648 
C 230.317727 264.291648 225.130142 263.259773 220.290377 261.255077 
C 215.450613 259.250381 211.052791 256.31185 207.348595 252.607655 
C 203.6444 248.903459 200.705869 244.505637 198.701173 239.665873 
C 196.696477 234.826108 195.664602 229.638523 195.664602 224.4 
C 195.664602 219.161477 196.696477 213.973892 198.701173 209.134127 
C 200.705869 204.294363 203.6444 199.896541 207.348595 196.192345 
C 211.052791 192.48815 215.450613 189.549619 220.290377 187.544923 
C 225.130142 185.540227 230.317727 184.508352 235.55625 184.508352 
" clip-path="url(#p5a4a666811)" style="fill: none; stroke: #cccccc; stroke-width: 1.5; stroke-linecap: round"/>
     </g>
     <g id="text_6">
      <!-- −0.02 -->
      <g style="fill: #262626" transform="translate(235.55625 181.076868) scale(0.165 -0.165)">
       <defs>
        <path id="DejaVuSans-32" d="M 1228 531 
L 3431 531 
L 3431 0 
L 469 0 
L 469 531 
Q 828 903 1448 1529 
Q 2069 2156 2228 2338 
Q 2531 2678 2651 2914 
Q 2772 3150 2772 3378 
Q 2772 3750 2511 3984 
Q 2250 4219 1831 4219 
Q 1534 4219 1204 4116 
Q 875 4013 500 3803 
L 500 4441 
Q 881 4594 1212 4672 
Q 1544 4750 1819 4750 
Q 2544 4750 2975 4387 
Q 3406 4025 3406 3419 
Q 3406 3131 3298 2873 
Q 3191 2616 2906 2266 
Q 2828 2175 2409 1742 
Q 1991 1309 1228 531 
z
" transform="scale(0.015625)"/>
       </defs>
       <use xlink:href="#DejaVuSans-2212"/>
       <use xlink:href="#DejaVuSans-30" transform="translate(83.789062 0)"/>
       <use xlink:href="#DejaVuSans-2e" transform="translate(147.412109 0)"/>
       <use xlink:href="#DejaVuSans-30" transform="translate(179.199219 0)"/>
       <use xlink:href="#DejaVuSans-32" transform="translate(242.822266 0)"/>
      </g>
     </g>
    </g>
    <g id="ytick_3">
     <g id="line2d_7">
      <path d="M 235.55625 161.713125 
C 243.788215 161.713125 251.940135 163.334643 259.545478 166.484879 
C 267.150822 169.635116 274.061686 174.252807 279.882564 180.073686 
C 285.703443 185.894564 290.321134 192.805428 293.471371 200.410772 
C 296.621607 208.016115 298.243125 216.168035 298.243125 224.4 
C 298.243125 232.631965 296.621607 240.783885 293.471371 248.389228 
C 290.321134 255.994572 285.703443 262.905436 279.882564 268.726314 
C 274.061686 274.547193 267.150822 279.164884 259.545478 282.315121 
C 251.940135 285.465357 243.788215 287.086875 235.55625 287.086875 
C 227.324285 287.086875 219.172365 285.465357 211.567022 282.315121 
C 203.961678 279.164884 197.050814 274.547193 191.229936 268.726314 
C 185.409057 262.905436 180.791366 255.994572 177.641129 248.389228 
C 174.490893 240.783885 172.869375 232.631965 172.869375 224.4 
C 172.869375 216.168035 174.490893 208.016115 177.641129 200.410772 
C 180.791366 192.805428 185.409057 185.894564 191.229936 180.073686 
C 197.050814 174.252807 203.961678 169.635116 211.567022 166.484879 
C 219.172365 163.334643 227.324285 161.713125 235.55625 161.713125 
" clip-path="url(#p5a4a666811)" style="fill: none; stroke: #cccccc; stroke-width: 1.5; stroke-linecap: round"/>
     </g>
     <g id="text_7">
      <!-- 0.00 -->
      <g style="fill: #262626" transform="translate(235.55625 158.281641) scale(0.165 -0.165)">
       <use xlink:href="#DejaVuSans-30"/>
       <use xlink:href="#DejaVuSans-2e" transform="translate(63.623047 0)"/>
       <use xlink:href="#DejaVuSans-30" transform="translate(95.410156 0)"/>
       <use xlink:href="#DejaVuSans-30" transform="translate(159.033203 0)"/>
      </g>
     </g>
    </g>
    <g id="ytick_4">
     <g id="line2d_8">
      <path d="M 235.55625 138.917898 
C 246.781657 138.917898 257.897911 141.129058 268.268834 145.424835 
C 278.639758 149.720613 288.063663 156.017465 296.001224 163.955026 
C 303.938785 171.892587 310.235637 181.316492 314.531415 191.687416 
C 318.827192 202.058339 321.038352 213.174593 321.038352 224.4 
C 321.038352 235.625407 318.827192 246.741661 314.531415 257.112584 
C 310.235637 267.483508 303.938785 276.907413 296.001224 284.844974 
C 288.063663 292.782535 278.639758 299.079387 268.268834 303.375165 
C 257.897911 307.670942 246.781657 309.882102 235.55625 309.882102 
C 224.330843 309.882102 213.214589 307.670942 202.843666 303.375165 
C 192.472742 299.079387 183.048837 292.782535 175.111276 284.844974 
C 167.173715 276.907413 160.876863 267.483508 156.581085 257.112584 
C 152.285308 246.741661 150.074148 235.625407 150.074148 224.4 
C 150.074148 213.174593 152.285308 202.058339 156.581085 191.687416 
C 160.876863 181.316492 167.173715 171.892587 175.111276 163.955026 
C 183.048837 156.017465 192.472742 149.720613 202.843666 145.424835 
C 213.214589 141.129058 224.330843 138.917898 235.55625 138.917898 
" clip-path="url(#p5a4a666811)" style="fill: none; stroke: #cccccc; stroke-width: 1.5; stroke-linecap: round"/>
     </g>
     <g id="text_8">
      <!-- 0.02 -->
      <g style="fill: #262626" transform="translate(235.55625 135.486413) scale(0.165 -0.165)">
       <use xlink:href="#DejaVuSans-30"/>
       <use xlink:href="#DejaVuSans-2e" transform="translate(63.623047 0)"/>
       <use xlink:href="#DejaVuSans-30" transform="translate(95.410156 0)"/>
       <use xlink:href="#DejaVuSans-32" transform="translate(159.033203 0)"/>
      </g>
     </g>
    </g>
    <g id="ytick_5">
     <g id="line2d_9">
      <path d="M 235.55625 116.12267 
C 249.775099 116.12267 263.855687 118.923474 276.99219 124.364791 
C 290.128693 129.806109 302.06564 137.782122 312.119884 147.836366 
C 322.174128 157.89061 330.150141 169.827557 335.591459 182.96406 
C 341.032776 196.100563 343.83358 210.181151 343.83358 224.4 
C 343.83358 238.618849 341.032776 252.699437 335.591459 265.83594 
C 330.150141 278.972443 322.174128 290.90939 312.119884 300.963634 
C 302.06564 311.017878 290.128693 318.993891 276.99219 324.435209 
C 263.855687 329.876526 249.775099 332.67733 235.55625 332.67733 
C 221.337401 332.67733 207.256813 329.876526 194.12031 324.435209 
C 180.983807 318.993891 169.04686 311.017878 158.992616 300.963634 
C 148.938372 290.90939 140.962359 278.972443 135.521041 265.83594 
C 130.079724 252.699437 127.27892 238.618849 127.27892 224.4 
C 127.27892 210.181151 130.079724 196.100563 135.521041 182.96406 
C 140.962359 169.827557 148.938372 157.89061 158.992616 147.836366 
C 169.04686 137.782122 180.983807 129.806109 194.12031 124.364791 
C 207.256813 118.923474 221.337401 116.12267 235.55625 116.12267 
" clip-path="url(#p5a4a666811)" style="fill: none; stroke: #cccccc; stroke-width: 1.5; stroke-linecap: round"/>
     </g>
     <g id="text_9">
      <!-- 0.04 -->
      <g style="fill: #262626" transform="translate(235.55625 112.691186) scale(0.165 -0.165)">
       <use xlink:href="#DejaVuSans-30"/>
       <use xlink:href="#DejaVuSans-2e" transform="translate(63.623047 0)"/>
       <use xlink:href="#DejaVuSans-30" transform="translate(95.410156 0)"/>
       <use xlink:href="#DejaVuSans-34" transform="translate(159.033203 0)"/>
      </g>
     </g>
    </g>
   </g>
   <g id="patch_3">
    <path d="M 235.55625 161.713125 
L 298.243125 224.4 
L 235.55625 287.086875 
L 172.869375 224.4 
z
" clip-path="url(#p5a4a666811)" style="fill: #2c7fb8; opacity: 0.25; stroke: #2c7fb8; stroke-width: 1.5; stroke-linejoin: miter"/>
   </g>
   <g id="line2d_10">
    <path d="M 235.55625 161.713125 
L 298.243125 224.4 
L 235.55625 287.086875 
L 172.869375 224.4 
L 235.55625 161.713125 
" clip-path="url(#p5a4a666811)" style="fill: none; stroke: #2c7fb8; stroke-width: 2; stroke-linecap: round"/>
   </g>
   <g id="patch_4">
    <path d="M 235.55625 99.02625 
C 219.09232 99.02625 202.788481 102.269285 187.577793 108.569758 
C 172.367105 114.870232 158.545378 124.105615 146.903621 135.747371 
C 135.261865 147.389128 126.026482 161.210855 119.726008 176.421543 
C 113.425535 191.632231 110.1825 207.93607 110.1825 224.4 
C 110.1825 240.86393 113.425535 257.167769 119.726008 272.378457 
C 126.026482 287.589145 135.261865 301.410872 146.903621 313.052629 
C 158.545378 324.694385 172.367105 333.929768 187.577793 340.230242 
C 202.788481 346.530715 219.09232 349.77375 235.55625 349.77375 
C 252.02018 349.77375 268.324019 346.530715 283.534707 340.230242 
C 298.745395 333.929768 312.567122 324.694385 324.208879 313.052629 
C 335.850635 301.410872 345.086018 287.589145 351.386492 272.378457 
C 357.686965 257.167769 360.93 240.86393 360.93 224.4 
C 360.93 207.93607 357.686965 191.632231 351.386492 176.421543 
C 345.086018 161.210855 335.850635 147.389128 324.208879 135.747371 
C 312.567122 124.105615 298.745395 114.870232 283.534707 108.569758 
C 268.324019 102.269285 252.02018 99.02625 235.55625 99.02625 
" style="fill: none; stroke: #cccccc; stroke-width: 1.875; stroke-linejoin: miter; stroke-linecap: square"/>
   </g>
   <g id="text_10">
    <!-- CLAS Overall Delta (Radar) -->
    <g style="fill: #262626" transform="translate(140.941406 65.541797) scale(0.14 -0.14)">
     <defs>
      <path id="DejaVuSans-4c" d="M 628 4666 
L 1259 4666 
L 1259 531 
L 3531 531 
L 3531 0 
L 628 0 
L 628 4666 
z
" transform="scale(0.015625)"/>
      <path id="DejaVuSans-53" d="M 3425 4513 
L 3425 3897 
Q 3066 4069 2747 4153 
Q 2428 4238 2131 4238 
Q 1616 4238 1336 4038 
Q 1056 3838 1056 3469 
Q 1056 3159 1242 3001 
Q 1428 2844 1947 2747 
L 2328 2669 
Q 3034 2534 3370 2195 
Q 3706 1856 3706 1288 
Q 3706 609 3251 259 
Q 2797 -91 1919 -91 
Q 1588 -91 1214 -16 
Q 841 59 441 206 
L 441 856 
Q 825 641 1194 531 
Q 1563 422 1919 422 
Q 2459 422 2753 634 
Q 3047 847 3047 1241 
Q 3047 1584 2836 1778 
Q 2625 1972 2144 2069 
L 1759 2144 
Q 1053 2284 737 2584 
Q 422 2884 422 3419 
Q 422 4038 858 4394 
Q 1294 4750 2059 4750 
Q 2388 4750 2728 4690 
Q 3069 4631 3425 4513 
z
" transform="scale(0.015625)"/>
      <path id="DejaVuSans-4f" d="M 2522 4238 
Q 1834 4238 1429 3725 
Q 1025 3213 1025 2328 
Q 1025 1447 1429 934 
Q 1834 422 2522 422 
Q 3209 422 3611 934 
Q 4013 1447 4013 2328 
Q 4013 3213 3611 3725 
Q 3209 4238 2522 4238 
z
M 2522 4750 
Q 3503 4750 4090 4092 
Q 4678 3434 4678 2328 
Q 4678 1225 4090 567 
Q 3503 -91 2522 -91 
Q 1538 -91 948 565 
Q 359 1222 359 2328 
Q 359 3434 948 4092 
Q 1538 4750 2522 4750 
z
" transform="scale(0.015625)"/>
      <path id="DejaVuSans-28" d="M 1984 4856 
Q 1566 4138 1362 3434 
Q 1159 2731 1159 2009 
Q 1159 1288 1364 580 
Q 1569 -128 1984 -844 
L 1484 -844 
Q 1016 -109 783 600 
Q 550 1309 550 2009 
Q 550 2706 781 3412 
Q 1013 4119 1484 4856 
L 1984 4856 
z
" transform="scale(0.015625)"/>
      <path id="DejaVuSans-52" d="M 2841 2188 
Q 3044 2119 3236 1894 
Q 3428 1669 3622 1275 
L 4263 0 
L 3584 0 
L 2988 1197 
Q 2756 1666 2539 1819 
Q 2322 1972 1947 1972 
L 1259 1972 
L 1259 0 
L 628 0 
L 628 4666 
L 2053 4666 
Q 2853 4666 3247 4331 
Q 3641 3997 3641 3322 
Q 3641 2881 3436 2590 
Q 3231 2300 2841 2188 
z
M 1259 4147 
L 1259 2491 
L 2053 2491 
Q 2509 2491 2742 2702 
Q 2975 2913 2975 3322 
Q 2975 3731 2742 3939 
Q 2509 4147 2053 4147 
L 1259 4147 
z
" transform="scale(0.015625)"/>
      <path id="DejaVuSans-64" d="M 2906 2969 
L 2906 4863 
L 3481 4863 
L 3481 0 
L 2906 0 
L 2906 525 
Q 2725 213 2448 61 
Q 2172 -91 1784 -91 
Q 1150 -91 751 415 
Q 353 922 353 1747 
Q 353 2572 751 3078 
Q 1150 3584 1784 3584 
Q 2172 3584 2448 3432 
Q 2725 3281 2906 2969 
z
M 947 1747 
Q 947 1113 1208 752 
Q 1469 391 1925 391 
Q 2381 391 2643 752 
Q 2906 1113 2906 1747 
Q 2906 2381 2643 2742 
Q 2381 3103 1925 3103 
Q 1469 3103 1208 2742 
Q 947 2381 947 1747 
z
" transform="scale(0.015625)"/>
      <path id="DejaVuSans-29" d="M 513 4856 
L 1013 4856 
Q 1481 4119 1714 3412 
Q 1947 2706 1947 2009 
Q 1947 1309 1714 600 
Q 1481 -109 1013 -844 
L 513 -844 
Q 928 -128 1133 580 
Q 1338 1288 1338 2009 
Q 1338 2731 1133 3434 
Q 928 4138 513 4856 
z
" transform="scale(0.015625)"/>
     </defs>
     <use xlink:href="#DejaVuSans-43"/>
     <use xlink:href="#DejaVuSans-4c" transform="translate(69.824219 0)"/>
     <use xlink:href="#DejaVuSans-41" transform="translate(127.787109 0)"/>
     <use xlink:href="#DejaVuSans-53" transform="translate(196.195312 0)"/>
     <use xlink:href="#DejaVuSans-20" transform="translate(259.671875 0)"/>
     <use xlink:href="#DejaVuSans-4f" transform="translate(291.458984 0)"/>
     <use xlink:href="#DejaVuSans-76" transform="translate(370.169922 0)"/>
     <use xlink:href="#DejaVuSans-65" transform="translate(429.349609 0)"/>
     <use xlink:href="#DejaVuSans-72" transform="translate(490.873047 0)"/>
     <use xlink:href="#DejaVuSans-61" transform="translate(531.986328 0)"/>
     <use xlink:href="#DejaVuSans-6c" transform="translate(593.265625 0)"/>
     <use xlink:href="#DejaVuSans-6c" transform="translate(621.048828 0)"/>
     <use xlink:href="#DejaVuSans-20" transform="translate(648.832031 0)"/>
     <use xlink:href="#DejaVuSans-44" transform="translate(680.619141 0)"/>
     <use xlink:href="#DejaVuSans-65" transform="translate(757.621094 0)"/>
     <use xlink:href="#DejaVuSans-6c" transform="translate(819.144531 0)"/>
     <use xlink:href="#DejaVuSans-74" transform="translate(846.927734 0)"/>
     <use xlink:href="#DejaVuSans-61" transform="translate(886.136719 0)"/>
     <use xlink:href="#DejaVuSans-20" transform="translate(947.416016 0)"/>
     <use xlink:href="#DejaVuSans-28" transform="translate(979.203125 0)"/>
     <use xlink:href="#DejaVuSans-52" transform="translate(1018.216797 0)"/>
     <use xlink:href="#DejaVuSans-61" transform="translate(1085.449219 0)"/>
     <use xlink:href="#DejaVuSans-64" transform="translate(1146.728516 0)"/>
     <use xlink:href="#DejaVuSans-61" transform="translate(1210.205078 0)"/>
     <use xlink:href="#DejaVuSans-72" transform="translate(1271.484375 0)"/>
     <use xlink:href="#DejaVuSans-29" transform="translate(1312.597656 0)"/>
    </g>
   </g>
  </g>
 </g>
 <defs>
  <clipPath id="p5a4a666811">
   <path d="M 360.93 224.4 
C 360.93 207.93607 357.686965 191.632231 351.386492 176.421543 
C 345.086018 161.210855 335.850635 147.389128 324.208879 135.747371 
C 312.567122 124.105615 298.745395 114.870232 283.534707 108.569758 
C 268.324019 102.269285 252.02018 99.02625 235.55625 99.02625 
C 219.09232 99.02625 202.788481 102.269285 187.577793 108.569758 
C 172.367105 114.870232 158.545378 124.105615 146.903621 135.747371 
C 135.261865 147.389128 126.026482 161.210855 119.726008 176.421543 
C 113.425535 191.632231 110.1825 207.93607 110.1825 224.4 
C 110.1825 240.86393 113.425535 257.167769 119.726008 272.378457 
C 126.026482 287.589145 135.261865 301.410872 146.903621 313.052629 
C 158.545378 324.694385 172.367105 333.929768 187.577793 340.230242 
C 202.788481 346.530715 219.09232 349.77375 235.55625 349.77375 
C 252.02018 349.77375 268.324019 346.530715 283.534707 340.230242 
C 298.745395 333.929768 312.567122 324.694385 324.208879 313.052629 
C 335.850635 301.410872 345.086018 287.589145 351.386492 272.378457 
C 357.686965 257.167769 360.93 240.86393 360.93 224.4 
M 235.55625 224.4 
C 235.55625 224.4 235.55625 224.4 235.55625 224.4 
C 235.55625 224.4 235.55625 224.4 235.55625 224.4 
C 235.55625 224.4 235.55625 224.4 235.55625 224.4 
C 235.55625 224.4 235.55625 224.4 235.55625 224.4 
C 235.55625 224.4 235.55625 224.4 235.55625 224.4 
C 235.55625 224.4 235.55625 224.4 235.55625 224.4 
C 235.55625 224.4 235.55625 224.4 235.55625 224.4 
C 235.55625 224.4 235.55625 224.4 235.55625 224.4 
C 235.55625 224.4 235.55625 224.4 235.55625 224.4 
C 235.55625 224.4 235.55625 224.4 235.55625 224.4 
C 235.55625 224.4 235.55625 224.4 235.55625 224.4 
C 235.55625 224.4 235.55625 224.4 235.55625 224.4 
C 235.55625 224.4 235.55625 224.4 235.55625 224.4 
C 235.55625 224.4 235.55625 224.4 235.55625 224.4 
C 235.55625 224.4 235.55625 224.4 235.55625 224.4 
C 235.55625 224.4 235.55625 224.4 235.55625 224.4 
z
"/>
  </clipPath>
 </defs>
</svg>
